<svg xmlns="http://www.w3.org/2000/svg" xmlns:xlink="http://www.w3.org/1999/xlink" viewBox="0 0 926 528">
<filter id="drop-shadow">
  <feGaussianBlur in="SourceAlpha" stdDeviation="2.2"/>
  <feOffset dx="20" dy="24" result="offsetblur"/>
  <feFlood flood-color="rgba(0,0,0,0.3)"/>
  <feComposite in2="offsetblur" operator="in"/>
  <feMerge>
    <feMergeNode/>
    <feMergeNode in="SourceGraphic"/>
  </feMerge>
</filter>
  <g id="shadow_Image" data-name="shadow Image">
    <image id="shadow_Image-2" data-name="shadow Image" width="926" height="528" xlink:href="imagefiles/converse1.png"/>
  </g>
  <g id="laces" style="isolation: isolate">
    <path d="M624,182l-6,1c-1.69,3.48-4,5.93-6,9-1.75-.63-1-.19-2-1-13.33-5.08-13.83-28.22-27-34-1,6.89-7,8.3-15,8-1.67-1.62-3.3-2.3-6-3v2c5,5.43,3.18,11.75,6,20,.57,1.66,3.43,4.34,4,6,1.78,5.21.17,9.17,2,14,4,10.49,8.17,11.8,8,26a33.79,33.79,0,0,0-8,1c-1.16,2.82-2.37,7.62-4,10-1.75-.63-1-.19-2-1-11.85-8.23-14.17-29.52-24-40-1.75.63-1,.19-2,1-4.31,1.51-8.63,7-12,10-3.62-.95-4.63-3.11-7,1s1.91,11.82,3,16c2.08,8-.16,13.71,2,22,.76,2.9,3.58,7.05,4,10q-1,5-2,10c-2.33.2-2.83.19-4,1-5.28,1.8-5.16,5.74-11,7-1-.8-.27-.35-2-1-1.36-4.26-5.83-6.85-7-11-.82-2.9,1.69-5.05,1-8-.78-3.33-4-16.2-7-18-10.23,8.86-13.41,6.63-28,6-.15,10.12-4.81,20.41-2,32,1.57,6.46,3.74,14.08,4,22H464c-1.7,2.58-4,3.84-6,6-1.75-.63-1-.19-2-1a10.08,10.08,0,0,1-7-7c2.25-4.57-2.59-17-4-22a15.61,15.61,0,0,0-5-1c-5.09,6.15-19.86,5.4-23,13-5.56,8.7-3.68,25.92-6,38-6-4.3-10,.11-15,2-3.59-5.45-7-6.39-7-16,1.74-2.64,1.92-9.14,2-13-2.42-1.3-2.83-1.8-7-2-7,7.63-18.83,3.08-27,3v2c-2.68,4.39.33,13-1,19-1.81,8.11-5.3,14.27-6,23-2.39.84-1.64.4-3,2-3-2.17-4.77-1.92-9-1-.14,3.76.47,3.52-2,5v-1c-7.49-8.21-8.14-13.31-11-29a10.92,10.92,0,0,1-3-2c-5.12,1.18-7.9,4.68-12,6s-10.75.35-14,1c-3,4.26-8.51,9.52-10,15-1.83,6.73,4.57,9.89-1,15-1.77,1.33-13,4-13,4-7.85-2.57-20.72-29.23-10-36,9.19-5.8,27.16-16.25,38-19,10.48-2.66,17.2,2.55,25,3,1.92-2.26,4.69-2.11,7-4,1.65-1.35,1.56-4.39,3-6,4.78-5.33,13.77-13.42,21-16,10.62-3.8,26,2.06,31-1,2.54-1.29,2.87-1.1,4-4,1.05-1.55,1-4.09,1-7h3c6.43-8.25,20.13-16.66,33-18,4.21-.44,7.14,6.06,12,4,2.87-1.12,1.84-.17,3-3,2.22-3.67,1.18-14.18,2-16,3.34-7.42,11.49-14.36,17-20,9-.16,19.51-.74,25,3,4.57,3.11,7.33,8.87,13,11V200c3.24-3.28,4.09-7.21,4-14a77,77,0,0,0,12-9c12.17-.17,14.7,4.05,24,5-.69-11.16-6.43-18.46-7-30,3.86-2.77,4.85-7.55,8-11s7.77-5.64,11-9c18.53-.34,14.92,4.66,26,8v-6c-3.22-3.34-9.79-14-10-20,5.33-7.51,8.39-17,18-20s19.26,2.17,24,4c7.14,2.76,12.53,2.28,20,5,12.23,4.45,23.42,12.67,32,21a33.79,33.79,0,0,1-1,8,18.26,18.26,0,0,1-6,1c-11.74,7.7-37.75-9.33-49-10a31.24,31.24,0,0,1-3,5C607.94,148.64,623.62,156.92,624,182Z" fill-rule="evenodd"/>
  </g>
  <g id="shoetip" style="isolation: isolate">
    <path d="M181,343c2.31.7,9,.67,11,2,9.32,13.58-7.66,42.65-3,49,5.09,6.93,42.19,7,44,18-1.09,1.63-1.59,5.86-2,8a21.58,21.58,0,0,1-7,1c-5-3-12.12-1.86-18-4-12-4.35-23.86-7.05-38-11-25.05-7-50.76-16.38-74-25-7.45-2.76-37-8.19-40-13h1c1.35-3.91,5.3-8.68,9-10h8c1.79-.67,4.22-4.12,6-5,17.48-8.59,39-9,65-9C151.17,344,176,346.11,181,343Z" fill-rule="evenodd"/>
  </g>
  <g id="logo" style="isolation: isolate">
    <path d="M766,164c38.14-.54,54.23,8.72,67,33,1.88,3.58,6.47,6.95,8,11,12.35,32.67.85,72.4-18,89-6.92,6.1-20.2,10.44-30,13-14.1,3.69-31.94-1.57-39-6-4.21-2.64-9.6-2.39-14-5-5.39-3.2-25.81-28.95-28-35-3.94-10.91-3.23-44.27,1-54,6.48-14.92,19.3-31.23,33-39C752.05,167.57,760.44,167.89,766,164Z" fill-rule="evenodd"/>
  </g>
  <g id="bottombottom" style="isolation: isolate">
    <path d="M314,512q-.5-18-1-36h1v-1c25.14,4.6,51.85,3.06,76,9h16c8.88,2.15,23.41,6.48,35,4,4.27-.91,6.9-2.7,11-4h20c9-2.18,27-1.79,36-4,16.18-4,31.72,2,47,2h65c12.79-3.09,37.21-3.15,50,0h38c18,0,38.86.28,54,4h34c1,.38,3,3.62,4,4h62c9.89-3.16,25.53-9.26,38-7a14.17,14.17,0,0,1,1,4c-4.53,4.19-4.41,16.58-6,25-2.73,1.71-2.5,2.54-7,3-6.18,3.84-23.18,2.85-32,5-9.81,2.39-25.17,2-38,2-36.11,0-61.84-3.7-97-4-5,0-7.87-1.24-11-2-13.28-3.2-32.19.85-44-2H636a66.46,66.46,0,0,1-16-2c-11.9-2.87-25.2.32-36-2H535c-43.79,0-79.79,2.72-117,9-4.84.82-12.73-1-19-1-13.72,0-30.35.57-41-2H342C333.67,514,324.46,512.05,314,512Z" fill-rule="evenodd"/>
  </g>
  <g id="bottommiddle" style="isolation: isolate">
    <path d="M902,458c.06,8.14.28,15.28-3,20-4.11,5.91-10.55,3.92-19,6-18.17,4.48-52,7.38-74,2H762c-18.51-4.51-41-4-63-4H670c-19.26-4.67-48.31-2-71-2-28.12,0-64.5-3.95-89,2-11.93,2.9-28.33-.35-38,2H432c-12.83,0-28.19.38-38-2H368c-16.39-4-34.25-5.93-54-6a195.68,195.68,0,0,1,3-24c2.07-1.28,2.3-2.08,5-3,3.91-2.15,37.68,3.47,44,5h26c6.32,1.54,15.93,2,25,2h17c8.86,2.15,36.3,4.81,48,2,14.07-3.38,35.71-2,53-2h19c9,2.18,30,4.89,42,2,9.55-2.3,39.63-5,52-2,3.24.78,8.44,3.32,14,2,17-4,42.69-2,63-2h23c1,.38,3,3.62,4,4h38c17.82,4.29,44.8,2,66,2h28C889.69,460.61,894.47,458.22,902,458Z" fill-rule="evenodd"/>
  </g>
  <g id="bottomtop" style="isolation: isolate">
    <path d="M912,424c-.06,6.68.58,12.49,1,18h-1c-1.85-.93-6.86.27-10,1-.37,4.49-.12,5.46,0,11-14.51,9.44-31.88,8-56,8-20.24,0-42.82-1.36-60-2H752c-1-.38-3-3.62-4-4H673l-25,1c-9.07-1.9-37.61-3.49-48-1-12.4,3-32.12-1.33-46,2-9.45,2.26-49.93,4.93-62,2-10.09-2.45-25.87-2-39-2H438c-10.87-2.64-28.85,1.19-42-2-7.34-1.78-20.46.31-30-2a250,250,0,0,0-46-6V436c-31.83.57-60.27-7.17-87-13-1.3-2.42-1.8-2.83-2-7,2-1.78,2.07-5.24,3-8a10.92,10.92,0,0,0,3-2c14.14,6.44,36.35,5.68,53,10h12c11.76,2.93,28.56,3.05,40,6h28c9.2,2.27,24.46-.55,36,2,20.45,4.52,45.6,0,68,0h96c14.61-3.59,37.14-2,55-2,16.61,0,37.62-1.46,51,2h66c10.06,2.23,22.39,2,34,2h14c11.54,2.92,33.32,6.7,46,3,7.75-2.26,27.16,4.7,39,2a55.65,55.65,0,0,1,13-1C894.11,430,902.67,424.23,912,424Z" fill-rule="evenodd"/>
  </g>
  <g id="shoebody" style="isolation: isolate">
    <path d="M911,424c-9.24.42-15.77,4.19-23,6-5.53,1.39-12.3,1.11-16,2-12,2.9-40.81.22-50-2H788c-5.34,0-8.65-1.19-12-2H746c-1.64-.52-4.36-3.48-6-4H722c-16.39,0-36.8,1.19-50-2H624c-38.84,0-71.85,2-111,2H440c-9.28,2.22-24.72,2.25-34,0-11.33-2.74-26.92.2-36-2H342c-29.5-7.18-63.3-8.58-96-11l-6-7c.33-2,.67-4,1-6a25,25,0,0,0,5-4h38c3-1.25,5.87-4.91,10-6,6.08-1.6,17.3.64,22-2,2.68-1.51,4-4.86,8-6,7.88-2.27,15.06.25,24-2s17.72-5.89,26-8h10c2.23-.76,4.25-4.14,6-5l18-3c.86-.29,3.14-2.73,4-3,3.27-1,6,1.62,8,1s4.92-4.32,8-5c2.91-.64,5.2,1.9,8,1,.9-.29,3.1-3.63,4-4h8c5.11-1.83,14.12-8.47,20-11l10-1c4.75-1.64,11.32-6.14,16-8l6-1,6-7,5-1c4.22-2.24,9-6.67,13-9l14-4c4.5-2.95,9.34-9.54,14-12,6.34-3.35,11-3.69,17-7,7.32-4,12.37-12.37,19-17,12-8.41,18.55-13.85,27-26,2.91-4.18,10.65-5.59,13-10,.33-2.33.67-4.67,1-7l10-8c1.77-2.89.77-3.91,3-6v-1c1.81-1.48,4.93-1.95,6-4q1-5,2-10l8-7c1.63-2.53,1.16-5.63,3-8,2.72-3.5,7.66-7.32,10-11l2-8c2.29-3.56,7.94-5.14,10-9,2-3.69,0-6.27,1-9h2l-1-4c1.86-5.13,9.16-11.06,12-16q1-5,2-10c3.66-8.25,11.88-12.59,13-24l6-1c5.76-14,8.22-13.65,28-13,7.1,5.1,29,2,40,2a77.73,77.73,0,0,0,18-2h18c18.93-5.46,39.29-15,62-16v1c-4.85,4.53-4.07,15.56-6,23-3.45,13.3-4.56,31.7-8,46v28c-4.29,18.18-2,45.84,2,62v12c2.27,9.08,5.7,20.93,8,30v8c4.83,18.88,12.72,36.42,19,54C908.62,356.94,908.29,389.38,911,424Z" fill-rule="evenodd"/>
  </g>
</svg>
